<svg width="1200" height="183" viewBox="0 0 1200 183" fill="none" xmlns="http://www.w3.org/2000/svg">
<g clip-path="url(#clip0_1_52)">
<path d="M94.4548 108.447C118.352 109.289 141.786 112.105 162.874 118.845C171.302 121.534 179.904 115.198 179.904 106.37V43.5869C179.904 36.7547 174.643 31.1111 167.834 30.5341C140.954 28.2836 108.536 34.4119 74.3731 48.6534C49.505 59.0287 26.926 74.632 8.94835 89.7622C3.27181 94.5286 0 101.58 0 109.001C0 118.338 9.53797 124.708 18.1511 121.073C40.0942 111.817 65.9334 107.443 94.4548 108.447Z" fill="#3F472F"></path>
<path d="M0 147.305V168.252C0 175.523 5.90776 181.42 13.1913 181.42H166.712C173.996 181.42 179.904 175.523 179.904 168.252V145.874C179.904 140.646 176.794 135.926 171.996 133.849C148.677 123.796 121.531 117.472 94.1774 116.503C54.4185 115.106 26.1051 124.431 6.47426 136.007C2.46253 138.384 0 142.666 0 147.305Z" fill="#3F472F"></path>
<path d="M179.904 15.0115C179.904 7.74074 169.487 1.84332 157.51 1.84332H13.1913C5.90776 1.84332 0 7.74074 0 15.0115V67.6959C0 74.1127 7.31823 77.8635 12.4976 74.055C29.481 61.6023 49.5397 50.2345 71.2516 41.1864C107.669 25.9985 142.399 19.7549 171.186 22.7555C175.834 23.2402 179.904 19.6741 179.904 15.0115Z" fill="#3F472F"></path>
<path d="M281.315 2.21324H301.772C302.812 2.21324 303.759 2.83592 304.175 3.79302L355.083 121.343V4.81931C355.083 3.3779 356.261 2.2017 357.705 2.2017H377.262C378.706 2.2017 379.884 3.3779 379.884 4.81931V178.169C379.884 179.611 378.706 180.787 377.262 180.787H356.584C355.533 180.787 354.598 180.164 354.182 179.207L303.505 61.6685V178.181C303.505 179.622 302.327 180.798 300.883 180.798H281.326C279.882 180.798 278.704 179.622 278.704 178.181V4.81931C278.704 3.3779 279.882 2.2017 281.326 2.2017L281.315 2.21324Z" fill="#3F472F"></path>
<path d="M391.588 88.1807C391.588 53.483 407.09 34.9177 439.191 34.9177C471.293 34.9177 485.686 52.5951 485.686 87.9616V112.085C485.686 113.526 484.508 114.703 483.064 114.703H418.156V134.156C418.156 153.609 425.237 161.335 439.411 161.335C451.806 161.335 457.789 155.143 458.228 139.23L458.379 134.248C458.425 132.83 459.58 131.711 461.001 131.711H482.625C484.069 131.711 485.247 132.887 485.247 134.329V134.813C484.358 165.971 469.745 182.991 439.191 182.991C407.09 182.991 391.588 164.426 391.588 129.728V88.1807ZM459.118 81.112C458.459 62.7657 451.367 56.5849 439.191 56.5849C425.249 56.5849 418.156 64.3224 418.156 83.9948V95.7106H459.118V81.112Z" fill="#3F472F"></path>
<path d="M517.316 106.528L486.104 40.8693C485.284 39.1396 486.543 37.1331 488.472 37.1331H510.963C512.002 37.1331 512.938 37.7443 513.354 38.6898L533.696 84.4345L554.038 38.6898C554.454 37.7443 555.401 37.1331 556.429 37.1331H577.361C579.29 37.1331 580.56 39.1396 579.729 40.8808L548.309 106.54L582.362 177.042C583.206 178.783 581.935 180.79 580.006 180.79H557.527C556.499 180.79 555.574 180.19 555.147 179.268L531.94 128.634L508.953 179.256C508.525 180.19 507.59 180.79 506.561 180.79H485.63C483.701 180.79 482.43 178.772 483.274 177.042L517.327 106.54L517.316 106.528Z" fill="#3F472F"></path>
<path d="M659.089 59.2377H632.705V137.916C632.705 155.155 635.801 158.695 645.989 158.695H659.089C660.533 158.695 661.711 159.871 661.711 161.313V178.183C661.711 179.624 660.533 180.801 659.089 180.801H636.91C611.889 180.801 606.795 167.759 606.795 143.451V59.2377H589.271C587.828 59.2377 586.649 58.0615 586.649 56.6201V37.1322H590.196C604.288 34.1917 609.591 20.8731 609.891 4.76388C609.914 3.34553 611.081 2.21546 612.502 2.21546H633.121C634.611 2.21546 635.801 3.46084 635.743 4.94838C635.166 20.9999 629.482 34.4223 619.629 37.1437H659.077C660.521 37.1437 661.699 38.3199 661.699 39.7613V56.6316C661.699 58.073 660.521 59.2492 659.077 59.2492L659.089 59.2377Z" fill="#3F472F"></path>
<path d="M691.662 129.727V121.517C691.662 120.075 692.84 118.899 694.284 118.899H716.717C718.161 118.899 719.339 120.075 719.339 121.517V136.357C719.339 154.854 726.998 160.988 744.117 160.885C755.865 160.815 765.395 151.36 765.395 139.632V133.705C765.395 117.573 759.192 111.6 746.578 105.2L723.336 91.939C705.627 81.3302 693.891 68.9571 693.891 45.3064C693.891 17.0202 709.832 0 742.373 0C774.913 0 791.525 16.1323 791.525 47.0707V54.8428C791.525 56.2842 790.346 57.4604 788.902 57.4604H766.689C765.245 57.4604 764.067 56.2842 764.067 54.8428V44.8567C764.067 27.0409 756.419 22.0132 741.818 22.0939C730.509 22.1516 721.338 31.2613 721.338 42.5504V45.2949C721.338 58.9941 727.98 65.4055 738.827 70.9289L762.068 84.1899C780.447 94.5796 792.841 105.846 792.841 134.143C792.841 166.408 777.79 182.99 743.251 182.99C708.712 182.99 691.662 165.093 691.662 129.727Z" fill="#3F472F"></path>
<path d="M800.127 88.1807C800.127 53.483 815.629 34.9177 847.731 34.9177C879.833 34.9177 894.226 52.5951 894.226 87.9616V112.085C894.226 113.526 893.048 114.703 891.604 114.703H826.696V134.156C826.696 153.609 833.777 161.335 847.95 161.335C860.345 161.335 866.329 155.143 866.768 139.23L866.918 134.248C866.964 132.83 868.119 131.711 869.54 131.711H891.165C892.609 131.711 893.787 132.887 893.787 134.329V134.813C892.897 165.971 878.285 182.991 847.743 182.991C815.641 182.991 800.139 164.426 800.139 129.728V88.1807H800.127ZM867.657 81.112C866.999 62.7657 859.906 56.5849 847.731 56.5849C833.788 56.5849 826.696 64.3224 826.696 83.9948V95.7106H867.657V81.112Z" fill="#3F472F"></path>
<path d="M930.937 55.0282C935.593 45.7455 945.33 34.9177 963.258 34.9177C986.5 34.9177 996.03 51.9378 996.03 78.898V178.171C996.03 179.612 994.852 180.788 993.408 180.788H972.742C971.298 180.788 970.12 179.612 970.12 178.171V80.8929C970.12 64.9797 965.026 56.5849 951.961 56.5849C935.13 56.5849 930.926 70.5032 930.926 82.4381V178.171C930.926 179.612 929.747 180.788 928.304 180.788H907.638C906.194 180.788 905.016 179.612 905.016 178.171V39.7493C905.016 38.3078 906.194 37.1317 907.638 37.1317H928.304C929.747 37.1317 930.926 38.3078 930.926 39.7493V55.0397L930.937 55.0282Z" fill="#3F472F"></path>
<path d="M1097.17 141.891C1097.17 163.996 1086.32 183 1051.34 183C1019.9 183 1004.19 168.413 1004.19 140.346V133.681C1004.19 132.239 1005.37 131.063 1006.81 131.063H1028.14C1029.58 131.063 1030.76 132.239 1030.76 133.681V139.908C1030.76 155.152 1036.96 161.344 1051.57 161.344C1066.19 161.344 1070.61 155.383 1070.61 143.448C1070.61 133.727 1067.3 128.861 1053.78 120.904L1031.87 108.969C1015.49 101.232 1005.97 91.0726 1005.97 72.7263C1005.97 53.0539 1017.26 34.9383 1050.7 34.9383C1082.36 34.9383 1096.08 50.4133 1096.08 75.8282V80.5099C1096.08 81.9513 1094.9 83.1275 1093.46 83.1275H1072.14C1070.69 83.1275 1069.51 81.9513 1069.51 80.5099V76.0589C1069.51 61.6909 1063.09 56.6056 1050.48 56.6056C1039.19 56.6056 1032.55 61.4718 1032.55 71.6308C1032.55 79.8065 1036.32 84.223 1046.27 89.5274L1071.51 103.676C1089.67 113.178 1097.19 123.349 1097.19 141.914L1097.17 141.891Z" fill="#3F472F"></path>
<path d="M1105.9 88.1807C1105.9 53.483 1121.4 34.9177 1153.51 34.9177C1185.61 34.9177 1200 52.5951 1200 87.9616V112.085C1200 113.526 1198.82 114.703 1197.38 114.703H1132.47V134.156C1132.47 153.609 1139.55 161.335 1153.72 161.335C1166.12 161.335 1172.1 155.143 1172.54 139.23L1172.69 134.248C1172.74 132.83 1173.89 131.711 1175.31 131.711H1196.94C1198.38 131.711 1199.56 132.887 1199.56 134.329V134.813C1198.67 165.971 1184.06 182.991 1153.52 182.991C1121.42 182.991 1105.91 164.426 1105.91 129.728V88.1807H1105.9ZM1173.43 81.112C1172.77 62.7657 1165.68 56.5849 1153.51 56.5849C1139.56 56.5849 1132.47 64.3224 1132.47 83.9948V95.7106H1173.43V81.112Z" fill="#3F472F"></path>
</g>
<defs>
<clipPath id="clip0_1_52">
<rect width="1200" height="183" fill="white"></rect>
</clipPath>
</defs>
</svg>