<svg width="451" height="451" viewBox="0 0 451 451" fill="none" xmlns="http://www.w3.org/2000/svg">
<path d="M236.275 267.467C296.052 269.579 354.673 276.635 407.423 293.525C428.505 300.263 450.022 284.386 450.022 262.262V104.935C450.022 87.814 436.863 73.6719 419.829 72.2259C352.591 66.5864 271.5 81.9432 186.041 117.631C123.835 143.63 67.3543 182.731 22.384 220.645C8.18432 232.589 0 250.26 0 268.856C0 292.252 23.8589 308.216 45.4042 299.106C100.294 275.912 164.93 264.951 236.275 267.467Z" fill="#3F472F"></path>
<path d="M0 364.842V417.333C0 435.553 14.778 450.331 32.9975 450.331H417.024C435.244 450.331 450.022 435.553 450.022 417.333V361.256C450.022 348.155 442.242 336.327 430.241 331.121C371.909 305.932 304.005 290.083 235.581 287.654C136.126 284.154 65.301 307.522 16.1951 336.529C6.15993 342.487 0 353.216 0 364.842Z" fill="#3F472F"></path>
<path d="M450.022 33.328C450.022 15.1082 423.965 0.329834 394.004 0.329834H32.9975C14.778 0.329834 0 15.1082 0 33.328V165.35C0 181.429 18.3063 190.828 31.2624 181.285C73.7456 150.08 123.922 121.593 178.233 98.9194C269.331 60.8602 356.206 45.2143 428.216 52.7336C439.842 53.9482 450.022 45.0118 450.022 33.328Z" fill="#3F472F"></path>
</svg>